<svg version="1.1" id="Layer_1" xmlns="http://www.w3.org/2000/svg" xmlns:xlink="http://www.w3.org/1999/xlink" x="0px" y="0px"
	 width="100%" viewBox="0 0 898 421" enable-background="new 0 0 898 421" xml:space="preserve">
<path fill="#FEFEFB" opacity="1.000000" stroke="none" 
	d="
M276.000000,422.000000 
	C184.354324,422.000000 92.708641,422.000000 1.031479,422.000000 
	C1.031479,281.719788 1.031479,141.439560 1.031479,1.000000 
	C150.579254,1.000000 300.158539,1.000000 449.737854,1.000000 
	C599.370239,1.000000 749.002686,1.000000 899.000000,1.000000 
	C899.000000,92.357086 899.000000,183.714661 898.531799,275.542297 
	C892.451965,276.012360 886.840332,276.012360 880.682800,276.012360 
	C880.682800,318.835083 880.682800,361.050049 880.682800,403.732788 
	C679.077881,403.732788 478.028870,403.732788 276.000000,403.732788 
	C276.000000,410.126923 276.000000,416.063446 276.000000,422.000000 
M862.465332,127.500137 
	C862.465332,98.228188 862.465332,68.956230 862.465332,39.471516 
	C666.958496,39.471516 472.112122,39.471516 277.142303,39.471516 
	C277.142303,112.384575 277.142303,184.945786 277.142303,257.695709 
	C472.301483,257.695709 667.161743,257.695709 862.465942,257.695709 
	C862.465942,214.423492 862.465942,171.461838 862.465332,127.500137 
M453.500000,276.014679 
	C396.672577,276.015533 339.845062,276.061310 283.017914,275.931915 
	C278.471039,275.921539 276.698334,276.749207 276.741425,281.888275 
	C277.012390,314.216003 277.019409,346.547913 276.775940,378.875885 
	C276.737183,384.023346 278.161377,385.243347 283.176636,385.230804 
	C346.502838,385.072266 409.829651,385.148041 473.156281,385.149567 
	C600.809570,385.152679 728.462830,385.124634 856.116028,385.234955 
	C860.724304,385.238922 862.429260,384.302216 862.395386,379.259399 
	C862.177734,346.931152 862.205627,314.599884 862.428589,282.271515 
	C862.463379,277.221832 861.013611,275.865021 855.957764,275.870697 
	C722.138672,276.020752 588.319275,276.003387 453.500000,276.014679 
M239.499374,258.015656 
	C244.165237,258.009460 248.842789,257.797516 253.493332,258.061432 
	C257.287811,258.276764 258.316223,256.806335 258.311584,253.147552 
	C258.223724,183.658218 258.210907,114.168694 258.324341,44.679436 
	C258.331573,40.232800 256.825745,39.005135 252.532639,39.011551 
	C183.709946,39.114380 114.887001,39.114620 46.064320,39.009064 
	C41.290413,39.001743 39.851715,40.575123 39.861774,45.383537 
	C40.005066,113.872879 39.956596,182.362625 39.962105,250.852264 
	C39.962681,258.042389 39.985321,258.044281 47.028637,258.043396 
	C110.852272,258.035339 174.675903,258.026550 239.499374,258.015656 
M39.913998,342.500000 
	C39.913998,356.598175 39.913998,370.696350 39.913998,384.813232 
	C113.070160,384.813232 185.593597,384.813232 258.159546,384.813232 
	C258.159546,348.477570 258.159546,312.546021 258.159546,276.328094 
	C185.393417,276.328094 112.871666,276.328094 39.913948,276.328094 
	C39.913948,298.261688 39.913948,319.880859 39.913998,342.500000 
M3.311042,205.499954 
	C3.311042,222.920502 3.311042,240.341049 3.311042,257.721008 
	C9.801749,257.721008 15.565186,257.721008 21.917336,257.721008 
	C21.917336,178.735352 21.917336,100.047523 21.917336,20.870829 
	C101.055893,20.870829 179.601395,20.870829 258.210815,20.870829 
	C258.210815,14.650430 258.210815,8.930412 258.210815,3.288622 
	C173.103882,3.288622 88.387421,3.288622 3.311360,3.288622 
	C3.311360,70.600258 3.311360,137.550095 3.311042,205.499954 
z"/>
<path fill="#6E6F72" opacity="1.000000" stroke="none" 
	d="
M276.468658,422.000000 
	C276.000000,416.063446 276.000000,410.126923 276.000000,403.732788 
	C478.028870,403.732788 679.077881,403.732788 880.682800,403.732788 
	C880.682800,361.050049 880.682800,318.835083 880.682800,276.012360 
	C886.840332,276.012360 892.451965,276.012360 898.531799,276.006165 
	C899.000000,324.638977 899.000000,373.277954 899.000000,422.000000 
	C691.645752,422.000000 484.291534,422.000000 276.468658,422.000000 
z"/>
<path fill="#6F7072" opacity="1.000000" stroke="none" 
	d="
M862.465637,128.000153 
	C862.465942,171.461838 862.465942,214.423492 862.465942,257.695709 
	C667.161743,257.695709 472.301483,257.695709 277.142303,257.695709 
	C277.142303,184.945786 277.142303,112.384575 277.142303,39.471516 
	C472.112122,39.471516 666.958496,39.471516 862.465332,39.471516 
	C862.465332,68.956230 862.465332,98.228188 862.465637,128.000153 
M338.070282,101.006706 
	C338.070282,101.006706 338.106140,101.082573 337.381683,101.077019 
	C335.952850,103.416328 334.524017,105.755630 333.101379,108.001709 
	C333.101379,108.001709 333.123383,108.093666 332.405945,108.106880 
	C326.685455,114.507538 323.810028,122.420380 322.273224,130.500946 
	C319.613434,144.486572 318.615204,158.636948 323.296051,172.564163 
	C324.067932,174.860779 323.829895,177.573074 324.878937,179.685974 
	C328.028870,186.030319 331.190094,192.434982 335.094910,198.319763 
	C338.869720,204.008591 342.996155,209.731903 349.993408,211.947464 
	C349.993408,211.947464 350.149658,211.839676 350.106445,212.584198 
	C351.429169,216.466141 354.833954,216.547363 357.988983,216.967941 
	C357.988983,216.967941 358.053345,216.919144 358.063446,217.648010 
	C358.384094,218.212860 358.573822,219.105820 359.044891,219.293793 
	C367.284302,222.581650 375.346771,226.590424 383.871796,228.822998 
	C398.311768,232.604584 413.097412,232.834763 428.104034,232.321564 
	C444.418854,231.763611 460.102478,228.842926 475.751556,224.876480 
	C478.718842,224.124390 480.066956,222.497833 480.051056,219.209549 
	C479.937714,195.761002 480.022125,172.311493 479.904266,148.862991 
	C479.897980,147.621246 478.629517,146.385864 477.868469,145.116241 
	C477.868469,145.116241 477.846558,145.033051 477.773712,144.230576 
	C476.129364,143.822144 474.488800,143.075684 472.840057,143.057083 
	C454.324585,142.848083 435.807861,142.723587 417.291504,142.730362 
	C416.595764,142.730606 415.900635,144.296997 415.151245,146.049545 
	C415.120270,149.547867 415.254089,153.057648 415.011932,156.541290 
	C414.770447,160.015106 416.075958,161.238785 419.576111,161.176514 
	C429.236389,161.004608 438.903107,161.217499 448.564545,161.082565 
	C452.601837,161.026184 454.095917,162.484894 454.018433,166.671341 
	C453.787292,179.162674 453.762695,191.665344 454.048126,204.154663 
	C454.149048,208.570053 452.510651,210.342499 448.355621,211.192215 
	C432.529266,214.428741 416.613495,215.112381 400.830109,211.804382 
	C376.784027,206.764603 358.607178,194.306656 351.021362,169.612732 
	C347.640900,158.608398 347.138245,147.407883 349.064270,136.102936 
	C351.504913,121.777092 358.241913,109.866295 369.494446,100.602432 
	C383.046997,89.445053 399.095093,85.074646 416.184113,84.090309 
	C432.049988,83.176414 447.761322,84.337517 463.012451,89.386848 
	C464.116669,89.752434 466.525635,89.317741 466.756805,88.682953 
	C468.612427,83.587570 470.090118,78.354553 471.835510,72.483932 
	C470.513123,71.491859 469.325348,70.045570 467.839447,69.605217 
	C465.016815,68.768707 462.038055,68.389290 459.098572,68.029068 
	C447.819489,66.646889 436.551636,65.094063 425.234589,64.138557 
	C420.520752,63.740570 415.643707,64.355309 410.929230,65.082436 
	C401.835785,66.484955 392.413574,67.186516 383.846527,70.213326 
	C372.883423,74.086685 362.590271,79.889076 352.121094,85.087181 
	C350.789337,85.748428 350.136902,87.777847 349.007233,89.012375 
	C349.007233,89.012375 349.167816,89.169945 348.450287,89.103455 
	C344.417450,91.982681 339.999054,94.530334 338.996002,100.009132 
	C338.996002,100.009132 339.052399,100.022667 338.566010,100.210472 
	C338.396118,100.503456 338.226196,100.796448 338.070282,101.006706 
M587.679260,227.912186 
	C587.480713,226.916168 587.282104,225.920151 587.068542,223.996582 
	C587.078003,179.692444 587.087463,135.388306 587.767639,90.933754 
	C589.421509,89.756035 591.068298,87.572052 592.730469,87.560265 
	C605.673462,87.468460 618.618835,87.879608 631.564697,87.969299 
	C646.071838,88.069809 646.072388,87.994110 646.012451,73.251785 
	C645.983765,66.213097 645.785095,65.996574 638.685486,65.995232 
	C599.266052,65.987785 559.846558,66.011497 520.427246,65.952003 
	C517.140137,65.947044 513.857422,65.352997 510.566223,65.126343 
	C507.086029,64.886673 502.661804,64.132950 501.922302,68.666512 
	C501.076660,73.850952 501.699097,79.276611 501.759399,84.596596 
	C501.760864,84.725647 502.655426,84.844574 503.375854,85.333084 
	C503.562042,85.562912 503.783783,85.750832 504.096558,86.691765 
	C506.052460,87.443710 508.013763,88.858398 509.963440,88.842628 
	C525.402161,88.717735 540.839661,88.358917 556.275024,87.971886 
	C559.093872,87.901207 560.246948,88.947845 559.999451,91.748787 
	C559.620972,96.031776 559.124207,100.319946 559.058594,104.611732 
	C558.916138,113.930611 558.921204,123.254288 559.033386,132.573990 
	C559.295410,154.339844 559.697021,176.104004 559.958557,197.869858 
	C560.075562,207.609314 560.095581,217.352783 559.945862,227.091141 
	C559.889404,230.765472 561.248352,232.187790 564.925293,232.044937 
	C570.077454,231.844742 575.263000,232.249207 580.392578,231.854080 
	C582.313721,231.706116 584.118042,230.041290 586.064087,228.521332 
	C586.102844,228.340851 586.141663,228.160355 586.597961,228.024399 
	C586.597961,228.024399 587.019531,228.020538 587.679260,227.912186 
M660.226685,223.857285 
	C659.819092,225.371185 659.411499,226.885071 658.805176,229.137115 
	C665.917908,229.137115 672.235291,228.838989 678.507507,229.242828 
	C682.631042,229.508301 684.426147,227.815262 685.781433,224.234344 
	C691.020996,210.390625 696.585083,196.669327 701.775696,182.807861 
	C702.922424,179.745667 704.517883,178.832901 707.630798,178.851212 
	C727.288147,178.966812 746.946716,178.961578 766.604187,178.857635 
	C769.518066,178.842239 771.037231,179.725037 772.126648,182.547318 
	C777.636230,196.820938 783.326111,211.025940 789.094971,225.197144 
	C789.696533,226.674988 791.191162,228.827911 792.344727,228.875076 
	C800.270142,229.198975 808.215027,229.045212 816.775452,229.045212 
	C815.667480,225.902847 814.880188,223.387695 813.904236,220.948029 
	C807.233215,204.272110 800.517944,187.613892 793.825806,170.946426 
	C780.564575,137.918045 767.265747,104.904572 754.124268,71.828598 
	C752.929626,68.821899 751.377563,67.776566 748.233215,67.870850 
	C741.409119,68.075478 734.565735,68.145470 727.748047,67.854263 
	C723.954102,67.692200 722.052063,69.132103 720.701904,72.565399 
	C714.250793,88.969521 707.591125,105.291481 701.046875,121.659119 
	C687.526123,155.475479 674.031555,189.302307 660.226685,223.857285 
z"/>
<path fill="#CCDA2E" opacity="1.000000" stroke="none" 
	d="
M454.000000,276.014648 
	C588.319275,276.003387 722.138672,276.020752 855.957764,275.870697 
	C861.013611,275.865021 862.463379,277.221832 862.428589,282.271515 
	C862.205627,314.599884 862.177734,346.931152 862.395386,379.259399 
	C862.429260,384.302216 860.724304,385.238922 856.116028,385.234955 
	C728.462830,385.124634 600.809570,385.152679 473.156281,385.149567 
	C409.829651,385.148041 346.502838,385.072266 283.176636,385.230804 
	C278.161377,385.243347 276.737183,384.023346 276.775940,378.875885 
	C277.019409,346.547913 277.012390,314.216003 276.741425,281.888275 
	C276.698334,276.749207 278.471039,275.921539 283.017914,275.931915 
	C339.845062,276.061310 396.672577,276.015533 454.000000,276.014648 
M382.140381,360.361450 
	C382.417664,360.242004 382.694916,360.122589 382.984406,359.329865 
	C382.431793,358.534821 381.879181,357.739746 381.227600,356.334595 
	C381.260040,355.925232 381.292480,355.515900 381.658112,355.075958 
	C381.658112,355.075958 381.992188,355.025482 382.562469,354.511719 
	C382.390350,352.313080 382.218262,350.114410 382.056488,346.990601 
	C382.354767,336.988586 382.653046,326.986572 382.980835,316.121887 
	C383.075104,308.191345 383.241669,307.949646 391.180389,308.040955 
	C401.621094,308.160980 412.059998,308.440704 422.500763,308.551514 
	C423.007477,308.556885 423.524414,307.600311 424.600311,306.548553 
	C424.391602,304.310669 424.182922,302.072815 423.775909,299.068024 
	C422.743652,298.714935 421.711884,298.054932 420.679077,298.053314 
	C388.066895,298.002350 355.454529,297.992401 322.842682,298.105682 
	C321.589691,298.110016 320.341156,299.394073 319.019653,300.919159 
	C319.046387,302.882080 319.073120,304.845001 319.574066,307.505341 
	C320.869507,307.677673 322.164337,307.993988 323.460480,307.999390 
	C333.263641,308.040100 343.067322,307.974731 352.870300,308.033508 
	C360.049072,308.076538 360.995911,309.064941 360.996460,315.965973 
	C360.997498,328.760162 360.943024,341.554932 361.073212,354.347809 
	C361.089081,355.907990 362.098236,357.458099 362.821899,359.769653 
	C362.904358,360.280884 362.986816,360.792114 363.243927,362.016174 
	C368.490601,362.660339 373.729706,363.400269 378.994354,363.817871 
	C379.598938,363.865845 380.346252,362.114777 381.169037,360.613220 
	C381.229706,360.422089 381.290344,360.230988 381.639343,360.056488 
	C381.639343,360.056488 381.927765,360.040070 382.140381,360.361450 
M590.683960,361.916534 
	C591.497070,359.824799 592.310242,357.733063 593.362427,355.026398 
	C571.987793,355.026398 552.070801,355.026398 531.657349,354.869293 
	C531.486938,354.836212 531.316528,354.803131 531.105774,354.287903 
	C531.105774,354.287903 530.980469,353.820587 531.070312,352.927399 
	C531.029175,335.305847 530.988037,317.684265 530.814026,299.256897 
	C524.796448,297.387543 518.830200,296.631134 512.977844,301.000641 
	C512.954529,319.896332 512.886108,338.792297 512.996399,357.687195 
	C513.004883,359.148529 514.269714,360.602539 515.561340,362.641327 
	C516.371887,362.772583 517.182373,363.017853 517.993042,363.018524 
	C540.766235,363.036957 563.539490,363.045654 586.312500,362.987274 
	C587.545349,362.984131 588.776550,362.384857 590.683960,361.916534 
M703.432312,361.684601 
	C703.684998,361.549561 703.793091,361.339844 703.920898,360.238129 
	C703.295471,358.423340 702.669983,356.608551 701.802002,354.037842 
	C700.094543,353.697174 698.388794,353.071625 696.679260,353.061096 
	C683.541138,352.979919 670.402222,353.014374 657.263550,353.020416 
	C643.748169,353.026642 643.892334,353.030396 643.900574,339.351135 
	C643.903137,335.132050 645.413513,333.907593 649.464111,333.958771 
	C663.598328,334.137390 677.736511,334.059631 691.872498,333.972931 
	C693.583984,333.962433 695.291565,333.303345 697.512634,332.380707 
	C697.587280,330.283600 697.661987,328.186493 698.158752,325.674011 
	C696.241211,325.118774 694.328613,324.102997 692.405396,324.082611 
	C679.281189,323.943512 666.154785,324.011475 653.029053,324.017120 
	C644.891541,324.020630 644.891541,324.024170 643.861084,316.122833 
	C643.061462,309.991760 644.766907,308.030853 650.972778,308.023346 
	C665.261536,308.006104 679.550415,308.037994 693.838806,307.963257 
	C695.583740,307.954132 697.325928,307.414032 699.788086,306.862305 
	C701.291321,304.309753 702.411133,301.800323 698.589844,299.180237 
	C696.876953,298.819458 695.158936,298.139099 693.452209,298.166199 
	C690.167542,298.218292 686.890320,298.904114 683.608154,298.918518 
	C665.257446,298.998993 646.906067,298.922241 628.555420,299.011566 
	C626.721741,299.020508 624.891785,299.785095 623.096619,300.791351 
	C623.179260,301.175964 623.261902,301.560577 623.142212,302.868591 
	C623.125916,322.493958 623.109558,342.119324 623.542358,362.471588 
	C624.337036,362.653900 625.131592,362.994446 625.926453,362.995483 
	C650.236450,363.027588 674.546509,363.038879 698.856445,362.988495 
	C699.919861,362.986298 700.982056,362.371643 702.551208,361.868530 
	C702.719910,361.810425 702.888611,361.752289 703.432312,361.684601 
M469.839050,299.273285 
	C463.764313,299.317383 457.689453,299.354492 451.615234,299.438965 
	C451.430542,299.441528 451.252747,299.938538 451.071869,301.116577 
	C451.069763,319.725525 451.018890,338.334808 451.149414,356.942841 
	C451.161011,358.601837 452.334625,361.676056 452.996552,361.683685 
	C458.701508,361.749969 464.412872,361.262482 470.894409,360.778900 
	C471.263000,359.925446 471.950500,359.072998 471.953217,358.218384 
	C472.011688,339.926605 472.028687,321.634308 471.902893,303.343170 
	C471.895294,302.239410 470.631683,301.144348 470.000000,300.000000 
	C470.000000,300.000000 469.954468,300.047485 469.839050,299.273285 
M737.466431,309.004791 
	C732.252563,315.103180 733.161682,320.641785 740.154907,324.451141 
	C742.627625,325.798065 745.217651,327.171387 747.924561,327.804596 
	C758.898010,330.371521 769.983337,332.467682 780.932556,335.128052 
	C785.882568,336.330780 790.898315,337.910126 795.359863,340.298157 
	C800.003235,342.783539 800.076172,346.724426 795.863220,349.773621 
	C793.258240,351.659027 790.100647,353.162079 786.971741,353.878113 
	C771.425903,357.435822 755.856750,355.887146 740.510559,352.709900 
	C734.910461,351.550446 733.479431,354.100189 731.864319,358.628693 
	C733.698181,359.138977 735.219727,359.692902 736.790100,359.979156 
	C752.908325,362.917328 769.195679,363.861084 785.402954,361.742706 
	C793.846741,360.639038 802.315369,358.196869 810.230957,355.012512 
	C818.063904,351.861420 820.325867,344.908447 815.920471,339.427887 
	C813.484070,336.396851 809.584717,333.703796 805.851074,332.706055 
	C793.210266,329.328003 780.309692,326.935242 767.594604,323.814514 
	C763.458923,322.799500 759.315308,321.161377 755.671204,318.979919 
	C751.927490,316.738800 752.071838,313.330261 755.741089,311.065277 
	C758.516052,309.352295 761.694641,307.408234 764.781189,307.247284 
	C775.023376,306.713257 785.306030,306.841248 795.571289,306.929565 
	C798.868042,306.957947 802.244507,308.261017 805.421265,307.815918 
	C807.398254,307.538971 809.069153,305.077087 810.877380,303.595825 
	C809.394348,302.688538 807.956909,301.084625 806.421143,300.984161 
	C794.162048,300.182648 781.859558,298.896698 769.619568,299.289581 
	C758.539185,299.645233 747.403015,301.533783 737.466431,309.004791 
z"/>
<path fill="#CCDB2C" opacity="1.000000" stroke="none" 
	d="
M238.999451,258.016815 
	C174.675903,258.026550 110.852272,258.035339 47.028637,258.043396 
	C39.985321,258.044281 39.962681,258.042389 39.962105,250.852264 
	C39.956596,182.362625 40.005066,113.872879 39.861774,45.383537 
	C39.851715,40.575123 41.290413,39.001743 46.064320,39.009064 
	C114.887001,39.114620 183.709946,39.114380 252.532639,39.011551 
	C256.825745,39.005135 258.331573,40.232800 258.324341,44.679436 
	C258.210907,114.168694 258.223724,183.658218 258.311584,253.147552 
	C258.316223,256.806335 257.287811,258.276764 253.493332,258.061432 
	C248.842789,257.797516 244.165237,258.009460 238.999451,258.016815 
z"/>
<path fill="#6E6F73" opacity="1.000000" stroke="none" 
	d="
M39.913971,342.000000 
	C39.913948,319.880859 39.913948,298.261688 39.913948,276.328094 
	C112.871666,276.328094 185.393417,276.328094 258.159546,276.328094 
	C258.159546,312.546021 258.159546,348.477570 258.159546,384.813232 
	C185.593597,384.813232 113.070160,384.813232 39.913998,384.813232 
	C39.913998,370.696350 39.913998,356.598175 39.913971,342.000000 
z"/>
<path fill="#717275" opacity="1.000000" stroke="none" 
	d="
M3.311201,204.999939 
	C3.311360,137.550095 3.311360,70.600258 3.311360,3.288622 
	C88.387421,3.288622 173.103882,3.288622 258.210815,3.288622 
	C258.210815,8.930412 258.210815,14.650430 258.210815,20.870829 
	C179.601395,20.870829 101.055893,20.870829 21.917336,20.870829 
	C21.917336,100.047523 21.917336,178.735352 21.917336,257.721008 
	C15.565186,257.721008 9.801749,257.721008 3.311042,257.721008 
	C3.311042,240.341049 3.311042,222.920502 3.311201,204.999939 
z"/>
<path fill="#CAD834" opacity="1.000000" stroke="none" 
	d="
M471.683411,73.163635 
	C470.090118,78.354553 468.612427,83.587570 466.756805,88.682953 
	C466.525635,89.317741 464.116669,89.752434 463.012451,89.386848 
	C447.761322,84.337517 432.049988,83.176414 416.184113,84.090309 
	C399.095093,85.074646 383.046997,89.445053 369.494446,100.602432 
	C358.241913,109.866295 351.504913,121.777092 349.064270,136.102936 
	C347.138245,147.407883 347.640900,158.608398 351.021362,169.612732 
	C358.607178,194.306656 376.784027,206.764603 400.830109,211.804382 
	C416.613495,215.112381 432.529266,214.428741 448.355621,211.192215 
	C452.510651,210.342499 454.149048,208.570053 454.048126,204.154663 
	C453.762695,191.665344 453.787292,179.162674 454.018433,166.671341 
	C454.095917,162.484894 452.601837,161.026184 448.564545,161.082565 
	C438.903107,161.217499 429.236389,161.004608 419.576111,161.176514 
	C416.075958,161.238785 414.770447,160.015106 415.011932,156.541290 
	C415.254089,153.057648 415.120270,149.547867 415.623047,145.543335 
	C436.678741,145.035751 457.262665,145.034393 477.846558,145.033051 
	C477.846558,145.033051 477.868469,145.116241 477.901886,145.584076 
	C477.941162,169.826202 477.881592,193.600906 478.023041,217.374405 
	C478.044373,220.955521 477.133148,222.788895 473.368805,223.462585 
	C467.188080,224.568771 461.138306,226.394958 454.966248,227.563187 
	C433.273346,231.669144 411.407654,233.029495 389.790436,227.958740 
	C378.944977,225.414719 368.615936,220.669098 358.053345,216.919144 
	C358.053345,216.919144 357.988983,216.967941 357.871399,216.657196 
	C355.219086,214.844193 352.684357,213.341934 350.149658,211.839676 
	C350.149658,211.839676 349.993408,211.947464 350.007996,211.572723 
	C325.849030,189.967453 317.930847,163.225693 324.231720,132.238708 
	C325.920959,123.931175 330.091766,116.128242 333.123383,108.093658 
	C333.123383,108.093666 333.101379,108.001709 333.397156,107.899384 
	C335.163971,105.558891 336.635071,103.320732 338.106140,101.082573 
	C338.106140,101.082573 338.070282,101.006706 338.303955,100.952263 
	C338.709198,100.606102 338.880798,100.314384 339.052399,100.022667 
	C339.052399,100.022667 338.996002,100.009132 339.315979,99.884232 
	C342.813263,96.229530 345.990540,92.699730 349.167816,89.169937 
	C349.167816,89.169945 349.007233,89.012375 349.435791,89.075233 
	C350.598846,88.755943 351.410278,88.473900 352.056702,87.977142 
	C372.887848,71.968979 397.174622,66.903816 422.645294,66.198051 
	C439.314789,65.736176 455.707306,68.234741 471.683411,73.163635 
z"/>
<path fill="#CAD833" opacity="1.000000" stroke="none" 
	d="
M660.376465,223.491058 
	C674.031555,189.302307 687.526123,155.475479 701.046875,121.659119 
	C707.591125,105.291481 714.250793,88.969521 720.701904,72.565399 
	C722.052063,69.132103 723.954102,67.692200 727.748047,67.854263 
	C734.565735,68.145470 741.409119,68.075478 748.233215,67.870850 
	C751.377563,67.776566 752.929626,68.821899 754.124268,71.828598 
	C767.265747,104.904572 780.564575,137.918045 793.825806,170.946426 
	C800.517944,187.613892 807.233215,204.272110 813.904236,220.948029 
	C814.880188,223.387695 815.667480,225.902847 816.775452,229.045212 
	C808.215027,229.045212 800.270142,229.198975 792.344727,228.875076 
	C791.191162,228.827911 789.696533,226.674988 789.094971,225.197144 
	C783.326111,211.025940 777.636230,196.820938 772.126648,182.547318 
	C771.037231,179.725037 769.518066,178.842239 766.604187,178.857635 
	C746.946716,178.961578 727.288147,178.966812 707.630798,178.851212 
	C704.517883,178.832901 702.922424,179.745667 701.775696,182.807861 
	C696.585083,196.669327 691.020996,210.390625 685.781433,224.234344 
	C684.426147,227.815262 682.631042,229.508301 678.507507,229.242828 
	C672.235291,228.838989 665.917908,229.137115 658.805176,229.137115 
	C659.411499,226.885071 659.819092,225.371185 660.376465,223.491058 
M735.900635,88.920822 
	C727.103271,113.060760 718.305969,137.200699 709.373352,161.711746 
	C727.782471,161.711746 746.114075,161.711746 764.950439,161.711746 
	C764.274292,159.682220 763.813965,158.127441 763.243469,156.614182 
	C754.974731,134.680969 746.706482,112.747475 738.361145,90.843414 
	C737.980713,89.844955 736.871887,89.124039 735.900635,88.920822 
z"/>
<path fill="#BFCA57" opacity="1.000000" stroke="none" 
	d="
M586.180481,227.979843 
	C586.141663,228.160355 586.102844,228.340851 585.698120,228.881226 
	C577.349182,229.263458 569.275024,231.205048 561.296448,228.458099 
	C561.222168,226.966888 561.115234,225.817917 561.114929,224.668900 
	C561.104370,180.108826 561.100952,135.548752 561.113647,90.988678 
	C561.114014,89.666031 561.296448,88.343430 561.736206,87.082886 
	C562.630371,88.869583 563.512695,90.569221 563.645447,92.325523 
	C563.791687,94.260414 563.039978,96.247139 563.037964,98.211647 
	C562.997070,138.698624 563.006348,179.185669 563.011169,219.672699 
	C563.011292,221.004410 562.828674,222.397110 563.149170,223.654907 
	C563.786133,226.154587 564.506104,228.329269 568.222351,227.267258 
	C570.671631,226.567307 573.553711,226.871765 576.150146,227.292755 
	C583.827209,228.537491 584.008057,228.487473 584.008362,220.629547 
	C584.009949,177.476715 584.003174,134.323883 584.009888,91.171043 
	C584.010864,84.715881 584.719543,84.016556 591.186401,84.010536 
	C606.181580,83.996574 621.179504,83.841476 636.170410,84.094055 
	C640.871277,84.173264 642.644409,82.542564 642.042969,78.013725 
	C641.934265,77.194962 641.915833,76.332527 642.042786,75.519432 
	C642.722046,71.166618 641.044312,69.853127 636.566589,69.880348 
	C604.744629,70.073792 572.920898,69.982857 541.097778,69.983109 
	C531.101013,69.983192 521.102966,69.907349 511.108673,70.065224 
	C509.497223,70.090675 507.084961,70.693260 506.436676,71.826454 
	C503.051514,77.743423 506.676971,83.752090 513.482483,83.986153 
	C514.647400,84.026222 515.814880,83.996094 516.981140,83.996155 
	C530.143616,83.996902 543.306641,83.938080 556.467651,84.078415 
	C557.977356,84.094521 559.475159,85.222137 560.511963,85.857452 
	C541.377258,85.885956 522.709167,85.891396 504.041016,85.896835 
	C503.783783,85.750832 503.562042,85.562912 503.268158,84.686142 
	C503.163177,80.373634 503.445557,76.681206 503.096527,73.049454 
	C502.678070,68.695625 504.513885,67.845100 508.513275,67.856880 
	C551.833435,67.984467 595.154053,67.930580 638.474548,67.945328 
	C640.229919,67.945923 641.985229,68.136154 644.067505,68.257004 
	C644.067505,73.312599 643.938416,77.798904 644.110107,82.273674 
	C644.237915,85.603897 642.459900,86.804825 639.588623,86.843002 
	C633.182434,86.928207 626.772278,86.980591 620.367554,86.855507 
	C609.581665,86.644836 598.798767,86.285866 587.600952,86.041649 
	C586.804993,87.092209 586.088684,88.090332 586.088501,89.088600 
	C586.079956,135.385681 586.133850,181.682755 586.180481,227.979843 
z"/>
<path fill="#74774F" opacity="1.000000" stroke="none" 
	d="
M588.014587,85.989273 
	C598.798767,86.285866 609.581665,86.644836 620.367554,86.855507 
	C626.772278,86.980591 633.182434,86.928207 639.588623,86.843002 
	C642.459900,86.804825 644.237915,85.603897 644.110107,82.273674 
	C643.938416,77.798904 644.067505,73.312599 644.067505,68.257004 
	C641.985229,68.136154 640.229919,67.945923 638.474548,67.945328 
	C595.154053,67.930580 551.833435,67.984467 508.513275,67.856880 
	C504.513885,67.845100 502.678070,68.695625 503.096527,73.049454 
	C503.445557,76.681206 503.163177,80.373634 503.146973,84.503708 
	C502.655426,84.844574 501.760864,84.725647 501.759399,84.596596 
	C501.699097,79.276611 501.076660,73.850952 501.922302,68.666512 
	C502.661804,64.132950 507.086029,64.886673 510.566223,65.126343 
	C513.857422,65.352997 517.140137,65.947044 520.427246,65.952003 
	C559.846558,66.011497 599.266052,65.987785 638.685486,65.995232 
	C645.785095,65.996574 645.983765,66.213097 646.012451,73.251785 
	C646.072388,87.994110 646.071838,88.069809 631.564697,87.969299 
	C618.618835,87.879608 605.673462,87.468460 592.730469,87.560265 
	C591.068298,87.572052 589.421509,89.756035 587.401245,90.627144 
	C587.361450,88.876785 587.688049,87.433037 588.014587,85.989273 
z"/>
<path fill="#74774F" opacity="1.000000" stroke="none" 
	d="
M561.393982,87.020798 
	C561.296448,88.343430 561.114014,89.666031 561.113647,90.988678 
	C561.100952,135.548752 561.104370,180.108826 561.114929,224.668900 
	C561.115234,225.817917 561.222168,226.966888 561.296448,228.458099 
	C569.275024,231.205048 577.349182,229.263458 585.653809,229.154602 
	C584.118042,230.041290 582.313721,231.706116 580.392578,231.854080 
	C575.263000,232.249207 570.077454,231.844742 564.925293,232.044937 
	C561.248352,232.187790 559.889404,230.765472 559.945862,227.091141 
	C560.095581,217.352783 560.075562,207.609314 559.958557,197.869858 
	C559.697021,176.104004 559.295410,154.339844 559.033386,132.573990 
	C558.921204,123.254288 558.916138,113.930611 559.058594,104.611732 
	C559.124207,100.319946 559.620972,96.031776 559.999451,91.748787 
	C560.246948,88.947845 559.093872,87.901207 556.275024,87.971886 
	C540.839661,88.358917 525.402161,88.717735 509.963440,88.842628 
	C508.013763,88.858398 506.052460,87.443710 504.068787,86.294296 
	C522.709167,85.891396 541.377258,85.885956 560.595581,86.161957 
	C561.228455,86.635857 561.311218,86.828323 561.393982,87.020798 
z"/>
<path fill="#757A44" opacity="1.000000" stroke="none" 
	d="
M358.058411,217.283569 
	C368.615936,220.669098 378.944977,225.414719 389.790436,227.958740 
	C411.407654,233.029495 433.273346,231.669144 454.966248,227.563187 
	C461.138306,226.394958 467.188080,224.568771 473.368805,223.462585 
	C477.133148,222.788895 478.044373,220.955521 478.023041,217.374405 
	C477.881592,193.600906 477.941162,169.826202 477.941956,145.599701 
	C478.629517,146.385864 479.897980,147.621246 479.904266,148.862991 
	C480.022125,172.311493 479.937714,195.761002 480.051056,219.209549 
	C480.066956,222.497833 478.718842,224.124390 475.751556,224.876480 
	C460.102478,228.842926 444.418854,231.763611 428.104034,232.321564 
	C413.097412,232.834763 398.311768,232.604584 383.871796,228.822998 
	C375.346771,226.590424 367.284302,222.581650 359.044891,219.293793 
	C358.573822,219.105820 358.384094,218.212860 358.058411,217.283569 
z"/>
<path fill="#757A44" opacity="1.000000" stroke="none" 
	d="
M471.759460,72.823784 
	C455.707306,68.234741 439.314789,65.736176 422.645294,66.198051 
	C397.174622,66.903816 372.887848,71.968979 352.056702,87.977142 
	C351.410278,88.473900 350.598846,88.755943 349.517029,89.155746 
	C350.136902,87.777847 350.789337,85.748428 352.121094,85.087181 
	C362.590271,79.889076 372.883423,74.086685 383.846527,70.213326 
	C392.413574,67.186516 401.835785,66.484955 410.929230,65.082436 
	C415.643707,64.355309 420.520752,63.740570 425.234589,64.138557 
	C436.551636,65.094063 447.819489,66.646889 459.098572,68.029068 
	C462.038055,68.389290 465.016815,68.768707 467.839447,69.605217 
	C469.325348,70.045570 470.513123,71.491859 471.759460,72.823784 
z"/>
<path fill="#757A44" opacity="1.000000" stroke="none" 
	d="
M332.764648,108.100266 
	C330.091766,116.128242 325.920959,123.931175 324.231720,132.238708 
	C317.930847,163.225693 325.849030,189.967453 350.087158,211.524567 
	C342.996155,209.731903 338.869720,204.008591 335.094910,198.319763 
	C331.190094,192.434982 328.028870,186.030319 324.878937,179.685974 
	C323.829895,177.573074 324.067932,174.860779 323.296051,172.564163 
	C318.615204,158.636948 319.613434,144.486572 322.273224,130.500946 
	C323.810028,122.420380 326.685455,114.507538 332.764648,108.100266 
z"/>
<path fill="#777E38" opacity="1.000000" stroke="none" 
	d="
M587.600952,86.041656 
	C587.688049,87.433037 587.361450,88.876785 587.065918,90.702347 
	C587.087463,135.388306 587.078003,179.692444 587.046021,224.847855 
	C587.022156,226.472931 587.020874,227.246735 587.019531,228.020538 
	C587.019531,228.020538 586.597961,228.024399 586.389221,228.002121 
	C586.133850,181.682755 586.079956,135.385681 586.088501,89.088600 
	C586.088684,88.090332 586.804993,87.092209 587.600952,86.041656 
z"/>
<path fill="#757A44" opacity="1.000000" stroke="none" 
	d="
M477.810120,144.631805 
	C457.262665,145.034393 436.678741,145.035751 415.650024,145.085327 
	C415.900635,144.296997 416.595764,142.730606 417.291504,142.730362 
	C435.807861,142.723587 454.324585,142.848083 472.840057,143.057083 
	C474.488800,143.075684 476.129364,143.822144 477.810120,144.631805 
z"/>
<path fill="#757A44" opacity="1.000000" stroke="none" 
	d="
M348.809052,89.136688 
	C345.990540,92.699730 342.813263,96.229530 339.336517,99.904770 
	C339.999054,94.530334 344.417450,91.982681 348.809052,89.136688 
z"/>
<path fill="#757A44" opacity="1.000000" stroke="none" 
	d="
M350.128052,212.211945 
	C352.684357,213.341934 355.219086,214.844193 357.909790,216.645416 
	C354.833954,216.547363 351.429169,216.466141 350.128052,212.211945 
z"/>
<path fill="#757A44" opacity="1.000000" stroke="none" 
	d="
M337.743896,101.079796 
	C336.635071,103.320732 335.163971,105.558891 333.394043,107.945992 
	C334.524017,105.755630 335.952850,103.416328 337.743896,101.079796 
z"/>
<path fill="#74774F" opacity="1.000000" stroke="none" 
	d="
M587.349365,227.966370 
	C587.020874,227.246735 587.022156,226.472931 587.053467,225.311630 
	C587.282104,225.920151 587.480713,226.916168 587.349365,227.966370 
z"/>
<path fill="#757A44" opacity="1.000000" stroke="none" 
	d="
M338.809204,100.116570 
	C338.880798,100.314384 338.709198,100.606102 338.296936,100.993629 
	C338.226196,100.796448 338.396118,100.503456 338.809204,100.116570 
z"/>
<path fill="#747852" opacity="1.000000" stroke="none" 
	d="
M737.736511,308.749298 
	C747.403015,301.533783 758.539185,299.645233 769.619568,299.289581 
	C781.859558,298.896698 794.162048,300.182648 806.421143,300.984161 
	C807.956909,301.084625 809.394348,302.688538 810.877380,303.595825 
	C809.069153,305.077087 807.398254,307.538971 805.421265,307.815918 
	C802.244507,308.261017 798.868042,306.957947 795.571289,306.929565 
	C785.306030,306.841248 775.023376,306.713257 764.781189,307.247284 
	C761.694641,307.408234 758.516052,309.352295 755.741089,311.065277 
	C752.071838,313.330261 751.927490,316.738800 755.671204,318.979919 
	C759.315308,321.161377 763.458923,322.799500 767.594604,323.814514 
	C780.309692,326.935242 793.210266,329.328003 805.851074,332.706055 
	C809.584717,333.703796 813.484070,336.396851 815.920471,339.427887 
	C820.325867,344.908447 818.063904,351.861420 810.230957,355.012512 
	C802.315369,358.196869 793.846741,360.639038 785.402954,361.742706 
	C769.195679,363.861084 752.908325,362.917328 736.790100,359.979156 
	C735.219727,359.692902 733.698181,359.138977 731.864319,358.628693 
	C733.479431,354.100189 734.910461,351.550446 740.510559,352.709900 
	C755.856750,355.887146 771.425903,357.435822 786.971741,353.878113 
	C790.100647,353.162079 793.258240,351.659027 795.863220,349.773621 
	C800.076172,346.724426 800.003235,342.783539 795.359863,340.298157 
	C790.898315,337.910126 785.882568,336.330780 780.932556,335.128052 
	C769.983337,332.467682 758.898010,330.371521 747.924561,327.804596 
	C745.217651,327.171387 742.627625,325.798065 740.154907,324.451141 
	C733.161682,320.641785 732.252563,315.103180 737.736511,308.749298 
M766.849548,304.967377 
	C769.931152,304.643402 773.009155,304.087921 776.095032,304.040070 
	C784.394897,303.911285 792.698120,303.999268 801.136536,304.725739 
	C802.823608,304.851593 804.510742,304.977478 806.197815,305.103363 
	C806.188965,304.380951 806.180115,303.658539 806.171265,302.936096 
	C804.933899,303.268097 803.702881,303.627167 802.455933,303.918030 
	C801.989746,304.026794 801.486389,303.976532 800.849121,303.252655 
	C797.090027,302.503052 793.336243,301.161346 789.570679,301.127075 
	C781.718262,301.055573 773.859558,301.675262 765.165039,302.002563 
	C762.111206,302.660583 759.057373,303.318604 755.216248,303.983093 
	C750.937134,305.454285 746.327148,306.361786 742.502502,308.607117 
	C740.192322,309.963379 737.722412,313.469269 737.849243,315.876160 
	C737.976929,318.298279 741.072083,320.716125 743.183289,322.818054 
	C744.256226,323.886230 745.964600,324.467560 747.490173,324.902618 
	C753.030396,326.482513 758.484863,328.932587 764.677612,326.954773 
	C763.508850,325.575317 762.112488,324.145203 760.704773,324.133881 
	C756.380676,324.099152 752.909058,322.265839 751.623413,318.512390 
	C750.321228,314.710480 750.746521,310.497925 755.763367,307.923035 
	C759.177063,306.942474 762.590759,305.961884 766.849548,304.967377 
M780.421509,331.707245 
	C782.209167,332.239227 784.034790,332.670197 785.776855,333.323669 
	C789.708435,334.798584 794.058533,334.830719 797.469055,338.122162 
	C802.309021,342.793182 802.070068,349.746979 796.343384,352.825958 
	C793.322083,354.450409 790.214478,355.914429 787.145752,357.450836 
	C787.140137,357.864655 787.134460,358.278503 787.128784,358.692322 
	C788.910645,358.692322 790.798035,359.076447 792.455017,358.621429 
	C797.773071,357.161072 803.077332,355.584961 808.252808,353.687805 
	C814.046448,351.564117 816.991394,343.489044 813.312256,339.953003 
	C811.320923,338.039124 808.875549,336.038391 806.302856,335.385254 
	C794.941711,332.500916 783.466858,330.060181 772.007324,327.578003 
	C771.192871,327.401611 770.170532,328.184906 769.244873,328.521973 
	C769.334351,328.953796 769.423828,329.385620 769.513367,329.817444 
	C772.902954,330.343201 776.292542,330.868958 780.421509,331.707245 
z"/>
<path fill="#6E6F71" opacity="1.000000" stroke="none" 
	d="
M530.980469,353.820587 
	C530.980469,353.820587 531.105774,354.287903 531.073242,354.903015 
	C530.026794,357.011261 529.013000,358.504425 527.535400,359.999146 
	C524.749268,359.999908 522.399536,359.771179 520.110046,360.045258 
	C515.208923,360.631927 513.862244,358.522156 513.936401,353.804993 
	C514.192139,337.552063 514.064697,321.293152 514.416626,304.966888 
	C515.169983,303.935669 515.589966,302.974091 516.220581,301.818207 
	C517.618347,301.738953 518.805481,301.854004 520.175232,302.224243 
	C521.240967,302.308533 522.124146,302.137634 523.431519,301.967682 
	C528.923401,301.220245 530.080750,303.934540 530.032593,308.387360 
	C529.887268,321.826996 529.943237,335.269379 530.022217,348.710083 
	C530.032288,350.415436 530.646240,352.117188 530.980469,353.820587 
z"/>
<path fill="#71735B" opacity="1.000000" stroke="none" 
	d="
M363.069275,361.303345 
	C362.986816,360.792114 362.904358,360.280884 362.841553,358.932007 
	C362.881165,341.084595 362.901184,324.074860 363.305634,307.111755 
	C364.126282,311.395355 364.872650,315.627472 364.938751,319.870209 
	C365.114838,331.174866 364.888916,342.486267 365.113861,353.789185 
	C365.148193,355.513397 366.378479,358.331879 367.653931,358.730652 
	C375.572113,361.206512 378.964661,358.534882 378.993530,350.322662 
	C379.027466,340.678223 379.188019,331.028198 378.909424,321.391724 
	C378.802582,317.696381 381.114349,313.524658 377.342377,310.219421 
	C377.047882,309.961365 377.550812,307.946075 378.101624,307.705444 
	C382.237701,305.898438 380.475647,303.513458 379.423035,301.063568 
	C392.388062,301.027008 404.884644,300.888947 417.373779,301.132294 
	C419.474609,301.173248 421.543365,302.862732 423.626923,303.790527 
	C421.697021,304.527222 419.786560,305.832458 417.833771,305.899231 
	C410.512482,306.149567 403.175934,305.907562 395.847992,306.026184 
	C391.575714,306.095337 387.308838,306.498962 382.655579,306.894897 
	C381.924591,309.714783 381.577637,312.391815 381.161530,315.526306 
	C381.169922,329.024658 381.247437,342.065613 381.324921,355.106537 
	C381.292480,355.515900 381.260040,355.925232 381.180237,357.022034 
	C381.205566,358.486267 381.278259,359.263062 381.350952,360.039856 
	C381.290344,360.230988 381.229706,360.422089 380.628448,360.881805 
	C374.415009,361.201355 368.742126,361.252350 363.069275,361.303345 
z"/>
<path fill="#7D8344" opacity="1.000000" stroke="none" 
	d="
M470.122345,360.940155 
	C464.412872,361.262482 458.701508,361.749969 452.996552,361.683685 
	C452.334625,361.676056 451.161011,358.601837 451.149414,356.942841 
	C451.018890,338.334808 451.069763,319.725525 451.530762,300.599304 
	C457.977905,300.070496 463.966187,300.058990 469.954468,300.047485 
	C469.954468,300.047485 470.000000,300.000000 470.005066,300.485840 
	C470.047546,320.961182 470.084930,340.950653 470.122345,360.940155 
M453.004852,345.448059 
	C453.262146,348.910309 453.224945,352.425751 453.838959,355.823547 
	C455.063019,362.597137 460.599854,359.465240 464.374481,359.875549 
	C468.462219,360.319916 468.019012,356.979889 468.019257,354.317200 
	C468.020447,340.318176 468.048950,326.319061 467.997253,312.320190 
	C467.955261,300.940460 469.475128,302.129822 457.505798,301.914764 
	C454.034271,301.852417 452.887756,302.955292 452.936401,306.465912 
	C453.111908,319.129242 453.004333,331.796539 453.004852,345.448059 
z"/>
<path fill="#787E41" opacity="1.000000" stroke="none" 
	d="
M519.992676,301.969055 
	C518.805481,301.854004 517.618347,301.738953 515.926086,301.952667 
	C514.975098,303.199799 514.529114,304.118134 514.083191,305.036499 
	C514.064697,321.293152 514.192139,337.552063 513.936401,353.804993 
	C513.862244,358.522156 515.208923,360.631927 520.110046,360.045258 
	C522.399536,359.771179 524.749268,359.999908 527.813843,360.285156 
	C532.631348,360.382324 536.706177,360.046600 540.781982,360.034515 
	C555.323914,359.991333 569.866455,360.030640 584.407776,360.150635 
	C585.293091,360.157928 586.170349,361.135345 586.586182,361.763733 
	C562.397583,361.930695 538.674072,361.995300 514.950623,362.059937 
	C514.269714,360.602539 513.004883,359.148529 512.996399,357.687195 
	C512.886108,338.792297 512.954529,319.896332 513.479187,300.514099 
	C519.635986,300.039246 525.291443,300.050995 530.946899,300.062714 
	C530.988037,317.684265 531.029175,335.305847 531.025391,353.373993 
	C530.646240,352.117188 530.032288,350.415436 530.022217,348.710083 
	C529.943237,335.269379 529.887268,321.826996 530.032593,308.387360 
	C530.080750,303.934540 528.923401,301.220245 523.241882,301.728394 
	C521.749573,301.648468 520.871155,301.808746 519.992676,301.969055 
z"/>
<path fill="#82884F" opacity="1.000000" stroke="none" 
	d="
M623.093201,361.744690 
	C623.109558,342.119324 623.125916,322.493958 623.511353,302.428436 
	C624.244812,302.003784 624.609131,302.019287 624.978210,302.406372 
	C624.991394,303.523590 624.999756,304.269287 625.001709,305.482666 
	C625.335876,323.293640 625.676453,340.636932 626.086487,358.362305 
	C628.779053,358.852325 631.402283,358.960266 634.366821,359.095490 
	C635.803284,359.416809 636.898438,359.710846 638.462891,360.011536 
	C659.614380,360.024384 680.296631,360.030640 700.984375,360.313660 
	C701.011169,360.956757 701.032288,361.323090 700.589600,361.778992 
	C674.448242,361.827271 648.770752,361.785980 623.093201,361.744690 
z"/>
<path fill="#6F725F" opacity="1.000000" stroke="none" 
	d="
M587.051392,361.661377 
	C586.170349,361.135345 585.293091,360.157928 584.407776,360.150635 
	C569.866455,360.030640 555.323914,359.991333 540.781982,360.034515 
	C536.706177,360.046600 532.631348,360.382324 528.277588,360.283600 
	C529.013000,358.504425 530.026794,357.011261 531.093384,355.144073 
	C531.316528,354.803131 531.486938,354.836212 532.169800,355.250641 
	C534.326721,355.751892 535.971069,355.972870 537.615784,355.976044 
	C553.748474,356.007263 569.881409,355.966339 586.013489,356.066254 
	C587.528809,356.075623 589.039001,356.907990 590.551514,357.358246 
	C590.016235,358.787262 589.480957,360.216309 588.633301,361.720276 
	C587.897766,361.750549 587.474609,361.705963 587.051392,361.661377 
z"/>
<path fill="#C6D15C" opacity="1.000000" stroke="none" 
	d="
M697.000916,332.944855 
	C695.291565,333.303345 693.583984,333.962433 691.872498,333.972931 
	C677.736511,334.059631 663.598328,334.137390 649.464111,333.958771 
	C645.413513,333.907593 643.903137,335.132050 643.900574,339.351135 
	C643.892334,353.030396 643.748169,353.026642 657.263550,353.020416 
	C670.402222,353.014374 683.541138,352.979919 696.679260,353.061096 
	C698.388794,353.071625 700.094543,353.697174 701.453857,354.488892 
	C681.789185,355.001709 662.472656,355.063416 642.898560,355.060181 
	C642.467224,354.967529 642.293518,354.939850 641.965454,354.588928 
	C641.811096,347.270782 641.811096,340.275940 641.811096,332.717590 
	C660.576172,332.717590 678.282166,332.717590 696.239502,332.782898 
	C696.660828,332.880402 696.830872,332.912628 697.000916,332.944855 
z"/>
<path fill="#C7D35C" opacity="1.000000" stroke="none" 
	d="
M319.090546,300.081818 
	C320.341156,299.394073 321.589691,298.110016 322.842682,298.105682 
	C355.454529,297.992401 388.066895,298.002350 420.679077,298.053314 
	C421.711884,298.054932 422.743652,298.714935 423.411011,299.505493 
	C388.394287,299.989227 353.742401,300.035522 319.090546,300.081818 
z"/>
<path fill="#C7D35C" opacity="1.000000" stroke="none" 
	d="
M699.069397,307.119995 
	C697.325928,307.414032 695.583740,307.954132 693.838806,307.963257 
	C679.550415,308.037994 665.261536,308.006104 650.972778,308.023346 
	C644.766907,308.030853 643.061462,309.991760 643.861084,316.122833 
	C644.891541,324.024170 644.891541,324.020630 653.029053,324.017120 
	C666.154785,324.011475 679.281189,323.943512 692.405396,324.082611 
	C694.328613,324.102997 696.241211,325.118774 697.505188,325.863342 
	C678.921875,326.088013 660.992065,326.123291 642.739868,325.864105 
	C642.235413,320.382080 642.053467,315.194580 641.924561,309.642883 
	C642.671875,308.443207 643.366089,307.607635 644.520264,306.839966 
	C663.010010,306.978577 681.039673,307.049286 699.069397,307.119995 
z"/>
<path fill="#7B813E" opacity="1.000000" stroke="none" 
	d="
M319.055115,300.500488 
	C353.742401,300.035522 388.394287,299.989227 423.510193,299.888916 
	C424.182922,302.072815 424.391602,304.310669 423.847717,306.772461 
	C409.743256,306.914917 396.391418,306.833496 383.039551,306.752106 
	C387.308838,306.498962 391.575714,306.095337 395.847992,306.026184 
	C403.175934,305.907562 410.512482,306.149567 417.833771,305.899231 
	C419.786560,305.832458 421.697021,304.527222 423.626923,303.790527 
	C421.543365,302.862732 419.474609,301.173248 417.373779,301.132294 
	C404.884644,300.888947 392.388062,301.027008 378.993683,301.045135 
	C376.079132,301.067230 374.064880,301.081116 371.641113,301.063324 
	C370.137665,301.052734 369.043732,301.073822 367.587891,301.082458 
	C366.501953,301.078400 365.777893,301.086823 364.580750,301.062988 
	C351.188965,301.022552 338.270294,300.991028 325.351746,301.017365 
	C319.938629,301.028412 319.578766,301.566162 320.746674,306.799286 
	C319.980774,306.844116 319.540314,306.826019 319.099854,306.807922 
	C319.073120,304.845001 319.046387,302.882080 319.055115,300.500488 
z"/>
<path fill="#7D833E" opacity="1.000000" stroke="none" 
	d="
M699.428711,306.991150 
	C681.039673,307.049286 663.010010,306.978577 644.837280,306.592346 
	C646.678223,306.177887 648.662170,305.996460 650.646301,305.993256 
	C665.119080,305.970062 679.592529,306.047943 694.063721,305.896301 
	C695.758850,305.878540 697.441345,304.657959 699.129700,303.994965 
	C698.931824,303.290619 698.733948,302.586273 698.536011,301.881897 
	C679.717529,300.098999 660.815308,301.330078 641.497314,301.088715 
	C636.693237,301.370300 632.345093,301.677399 627.619263,301.979797 
	C626.485535,301.995026 625.729431,302.014893 624.973389,302.034790 
	C624.609131,302.019287 624.244812,302.003784 623.612549,301.966736 
	C623.261902,301.560577 623.179260,301.175964 623.538818,300.433044 
	C625.967346,300.043671 627.953613,299.990570 629.940063,299.984924 
	C652.958191,299.919403 675.976257,299.861053 698.994385,299.800781 
	C702.411133,301.800323 701.291321,304.309753 699.428711,306.991150 
z"/>
<path fill="#BCC855" opacity="1.000000" stroke="none" 
	d="
M319.336975,307.156616 
	C319.540314,306.826019 319.980774,306.844116 321.077332,306.845886 
	C322.178436,306.802734 322.623413,306.775909 323.525757,306.816956 
	C336.266571,306.850098 348.550018,306.815430 361.183594,306.845245 
	C362.004761,306.964783 362.475769,307.019806 362.955322,307.062103 
	C362.963837,307.049377 362.921204,307.065125 362.921204,307.065125 
	C362.901184,324.074860 362.881165,341.084595 362.754120,358.553589 
	C362.098236,357.458099 361.089081,355.907990 361.073212,354.347809 
	C360.943024,341.554932 360.997498,328.760162 360.996460,315.965973 
	C360.995911,309.064941 360.049072,308.076538 352.870300,308.033508 
	C343.067322,307.974731 333.263641,308.040100 323.460480,307.999390 
	C322.164337,307.993988 320.869507,307.677673 319.336975,307.156616 
z"/>
<path fill="#C7D35A" opacity="1.000000" stroke="none" 
	d="
M470.508362,360.859528 
	C470.084930,340.950653 470.047546,320.961182 469.981323,300.508453 
	C470.631683,301.144348 471.895294,302.239410 471.902893,303.343170 
	C472.028687,321.634308 472.011688,339.926605 471.953217,358.218384 
	C471.950500,359.072998 471.263000,359.925446 470.508362,360.859528 
z"/>
<path fill="#C6D264" opacity="1.000000" stroke="none" 
	d="
M698.792114,299.490540 
	C675.976257,299.861053 652.958191,299.919403 629.940063,299.984924 
	C627.953613,299.990570 625.967346,300.043671 623.520508,300.136841 
	C624.891785,299.785095 626.721741,299.020508 628.555420,299.011566 
	C646.906067,298.922241 665.257446,298.998993 683.608154,298.918518 
	C686.890320,298.904114 690.167542,298.218292 693.452209,298.166199 
	C695.158936,298.139099 696.876953,298.819458 698.792114,299.490540 
z"/>
<path fill="#CAD45E" opacity="1.000000" stroke="none" 
	d="
M623.317749,362.108154 
	C648.770752,361.785980 674.448242,361.827271 700.835815,361.872650 
	C701.712097,361.931915 701.878479,361.987091 702.044800,362.042267 
	C700.982056,362.371643 699.919861,362.986298 698.856445,362.988495 
	C674.546509,363.038879 650.236450,363.027588 625.926453,362.995483 
	C625.131592,362.994446 624.337036,362.653900 623.317749,362.108154 
z"/>
<path fill="#75793D" opacity="1.000000" stroke="none" 
	d="
M702.297974,361.955383 
	C701.878479,361.987091 701.712097,361.931915 701.299622,361.783081 
	C701.032288,361.323090 701.011169,360.956757 700.993958,359.886841 
	C701.294556,355.336823 698.500061,356.024963 696.271362,356.021606 
	C680.306030,355.997559 664.340576,356.031158 648.375549,355.962891 
	C646.634583,355.955444 644.895935,355.417206 643.156189,355.125153 
	C662.472656,355.063416 681.789185,355.001709 701.575073,354.866882 
	C702.669983,356.608551 703.295471,358.423340 703.696411,360.721008 
	C703.290039,361.330261 703.151855,361.493683 703.057373,361.694122 
	C702.888611,361.752289 702.719910,361.810425 702.297974,361.955383 
z"/>
<path fill="#787E41" opacity="1.000000" stroke="none" 
	d="
M588.945679,361.645355 
	C589.480957,360.216309 590.016235,358.787262 590.551514,357.358246 
	C589.039001,356.907990 587.528809,356.075623 586.013489,356.066254 
	C569.881409,355.966339 553.748474,356.007263 537.615784,355.976044 
	C535.971069,355.972870 534.326721,355.751892 532.417969,355.329193 
	C552.070801,355.026398 571.987793,355.026398 593.362427,355.026398 
	C592.310242,357.733063 591.497070,359.824799 590.073730,361.902283 
	C589.290894,361.807190 589.118286,361.726288 588.945679,361.645355 
z"/>
<path fill="#CAD45E" opacity="1.000000" stroke="none" 
	d="
M588.633301,361.720276 
	C589.118286,361.726288 589.290894,361.807190 589.735962,361.975586 
	C588.776550,362.384857 587.545349,362.984131 586.312500,362.987274 
	C563.539490,363.045654 540.766235,363.036957 517.993042,363.018524 
	C517.182373,363.017853 516.371887,362.772583 515.255981,362.350647 
	C538.674072,361.995300 562.397583,361.930695 586.586182,361.763733 
	C587.474609,361.705963 587.897766,361.750549 588.633301,361.720276 
z"/>
<path fill="#747B36" opacity="1.000000" stroke="none" 
	d="
M643.062317,326.158600 
	C660.992065,326.123291 678.921875,326.088013 697.294189,326.071045 
	C697.661987,328.186493 697.587280,330.283600 697.256775,332.662781 
	C696.830872,332.912628 696.660828,332.880402 696.227295,332.588470 
	C695.963806,332.328766 695.928406,331.937805 695.952759,331.579010 
	C695.653992,330.142426 695.330872,329.064606 694.858154,327.765594 
	C694.131409,327.687897 693.554199,327.831421 692.563782,327.922394 
	C690.034546,327.587097 687.919861,327.071350 685.802185,327.059204 
	C671.536255,326.977356 657.269653,327.002289 643.012329,326.783722 
	C643.021423,326.574799 643.062317,326.158600 643.062317,326.158600 
z"/>
<path fill="#BFCB58" opacity="1.000000" stroke="none" 
	d="
M382.655579,306.894897 
	C396.391418,306.833496 409.743256,306.914917 423.565857,307.044006 
	C423.524414,307.600311 423.007477,308.556885 422.500763,308.551514 
	C412.059998,308.440704 401.621094,308.160980 391.180389,308.040955 
	C383.241669,307.949646 383.075104,308.191345 382.744141,316.412292 
	C382.081879,316.158112 381.656281,315.613495 381.230652,315.068878 
	C381.577637,312.391815 381.924591,309.714783 382.655579,306.894897 
z"/>
<path fill="#BCC855" opacity="1.000000" stroke="none" 
	d="
M381.161530,315.526306 
	C381.656281,315.613495 382.081879,316.158112 382.729431,316.843628 
	C382.653046,326.986572 382.354767,336.988586 382.035370,347.900696 
	C382.006897,350.882385 381.999542,352.953918 381.992188,355.025482 
	C381.992188,355.025482 381.658112,355.075958 381.491516,355.091248 
	C381.247437,342.065613 381.169922,329.024658 381.161530,315.526306 
z"/>
<path fill="#BCC855" opacity="1.000000" stroke="none" 
	d="
M363.156616,361.659760 
	C368.742126,361.252350 374.415009,361.201355 380.557617,361.174133 
	C380.346252,362.114777 379.598938,363.865845 378.994354,363.817871 
	C373.729706,363.400269 368.490601,362.660339 363.156616,361.659760 
z"/>
<path fill="#C7D35A" opacity="1.000000" stroke="none" 
	d="
M530.880493,299.659790 
	C525.291443,300.050995 519.635986,300.039246 513.519043,300.051575 
	C518.830200,296.631134 524.796448,297.387543 530.880493,299.659790 
z"/>
<path fill="#C7D35A" opacity="1.000000" stroke="none" 
	d="
M469.896759,299.660400 
	C463.966187,300.058990 457.977905,300.070496 451.530670,300.143524 
	C451.252747,299.938538 451.430542,299.441528 451.615234,299.438965 
	C457.689453,299.354492 463.764313,299.317383 469.896759,299.660400 
z"/>
<path fill="#BFCB58" opacity="1.000000" stroke="none" 
	d="
M382.277344,354.768616 
	C381.999542,352.953918 382.006897,350.882385 382.030212,348.363281 
	C382.218262,350.114410 382.390350,352.313080 382.277344,354.768616 
z"/>
<path fill="#BFCB58" opacity="1.000000" stroke="none" 
	d="
M381.495148,360.048157 
	C381.278259,359.263062 381.205566,358.486267 381.229706,357.327087 
	C381.879181,357.739746 382.431793,358.534821 382.717224,359.671448 
	C382.275940,360.022003 382.101868,360.031036 381.927765,360.040070 
	C381.927765,360.040070 381.639343,360.056488 381.495148,360.048157 
z"/>
<path fill="#BCC855" opacity="1.000000" stroke="none" 
	d="
M382.034058,360.200745 
	C382.101868,360.031036 382.275940,360.022003 382.711121,360.008057 
	C382.694916,360.122589 382.417664,360.242004 382.034058,360.200745 
z"/>
<path fill="#82884F" opacity="1.000000" stroke="none" 
	d="
M703.244873,361.689362 
	C703.151855,361.493683 703.290039,361.330261 703.614258,361.129639 
	C703.793091,361.339844 703.684998,361.549561 703.244873,361.689362 
z"/>
<path fill="#6F7169" opacity="1.000000" stroke="none" 
	d="
M736.001465,88.597351 
	C736.871887,89.124039 737.980713,89.844955 738.361145,90.843414 
	C746.706482,112.747475 754.974731,134.680969 763.243469,156.614182 
	C763.813965,158.127441 764.274292,159.682220 764.950439,161.711746 
	C746.114075,161.711746 727.782471,161.711746 709.373352,161.711746 
	C718.305969,137.200699 727.103271,113.060760 736.001465,88.597351 
z"/>
<path fill="#CBDA2C" opacity="1.000000" stroke="none" 
	d="
M561.736206,87.082886 
	C561.311218,86.828323 561.228455,86.635857 561.062134,86.138885 
	C559.475159,85.222137 557.977356,84.094521 556.467651,84.078415 
	C543.306641,83.938080 530.143616,83.996902 516.981140,83.996155 
	C515.814880,83.996094 514.647400,84.026222 513.482483,83.986153 
	C506.676971,83.752090 503.051514,77.743423 506.436676,71.826454 
	C507.084961,70.693260 509.497223,70.090675 511.108673,70.065224 
	C521.102966,69.907349 531.101013,69.983192 541.097778,69.983109 
	C572.920898,69.982857 604.744629,70.073792 636.566589,69.880348 
	C641.044312,69.853127 642.722046,71.166618 642.042786,75.519432 
	C641.915833,76.332527 641.934265,77.194962 642.042969,78.013725 
	C642.644409,82.542564 640.871277,84.173264 636.170410,84.094055 
	C621.179504,83.841476 606.181580,83.996574 591.186401,84.010536 
	C584.719543,84.016556 584.010864,84.715881 584.009888,91.171043 
	C584.003174,134.323883 584.009949,177.476715 584.008362,220.629547 
	C584.008057,228.487473 583.827209,228.537491 576.150146,227.292755 
	C573.553711,226.871765 570.671631,226.567307 568.222351,227.267258 
	C564.506104,228.329269 563.786133,226.154587 563.149170,223.654907 
	C562.828674,222.397110 563.011292,221.004410 563.011169,219.672699 
	C563.006348,179.185669 562.997070,138.698624 563.037964,98.211647 
	C563.039978,96.247139 563.791687,94.260414 563.645447,92.325523 
	C563.512695,90.569221 562.630371,88.869583 561.736206,87.082886 
z"/>
<path fill="#6E6F72" opacity="1.000000" stroke="none" 
	d="
M780.051819,331.550964 
	C776.292542,330.868958 772.902954,330.343201 769.513367,329.817444 
	C769.423828,329.385620 769.334351,328.953796 769.244873,328.521973 
	C770.170532,328.184906 771.192871,327.401611 772.007324,327.578003 
	C783.466858,330.060181 794.941711,332.500916 806.302856,335.385254 
	C808.875549,336.038391 811.320923,338.039124 813.312256,339.953003 
	C816.991394,343.489044 814.046448,351.564117 808.252808,353.687805 
	C803.077332,355.584961 797.773071,357.161072 792.455017,358.621429 
	C790.798035,359.076447 788.910645,358.692322 787.128784,358.692322 
	C787.134460,358.278503 787.140137,357.864655 787.145752,357.450836 
	C790.214478,355.914429 793.322083,354.450409 796.343384,352.825958 
	C802.070068,349.746979 802.309021,342.793182 797.469055,338.122162 
	C794.058533,334.830719 789.708435,334.798584 785.776855,333.323669 
	C784.034790,332.670197 782.209167,332.239227 780.051819,331.550964 
z"/>
<path fill="#6E6F72" opacity="1.000000" stroke="none" 
	d="
M755.014832,308.022552 
	C750.746521,310.497925 750.321228,314.710480 751.623413,318.512390 
	C752.909058,322.265839 756.380676,324.099152 760.704773,324.133881 
	C762.112488,324.145203 763.508850,325.575317 764.677612,326.954773 
	C758.484863,328.932587 753.030396,326.482513 747.490173,324.902618 
	C745.964600,324.467560 744.256226,323.886230 743.183289,322.818054 
	C741.072083,320.716125 737.976929,318.298279 737.849243,315.876160 
	C737.722412,313.469269 740.192322,309.963379 742.502502,308.607117 
	C746.327148,306.361786 750.937134,305.454285 755.471069,304.304962 
	C755.488892,305.758728 755.251831,306.890656 755.014832,308.022552 
z"/>
<path fill="#6F7169" opacity="1.000000" stroke="none" 
	d="
M801.000000,304.001221 
	C792.698120,303.999268 784.394897,303.911285 776.095032,304.040070 
	C773.009155,304.087921 769.931152,304.643402 766.523193,304.726990 
	C766.132385,303.661377 766.067932,302.836182 766.003479,302.010986 
	C773.859558,301.675262 781.718262,301.055573 789.570679,301.127075 
	C793.336243,301.161346 797.090027,302.503052 800.924561,303.626343 
	C801.000000,304.000000 801.000000,304.001221 801.000000,304.001221 
z"/>
<path fill="#6E706A" opacity="1.000000" stroke="none" 
	d="
M765.584229,302.006775 
	C766.067932,302.836182 766.132385,303.661377 766.100647,304.733948 
	C762.590759,305.961884 759.177063,306.942474 755.389099,307.972778 
	C755.251831,306.890656 755.488892,305.758728 755.864746,304.301727 
	C759.057373,303.318604 762.111206,302.660583 765.584229,302.006775 
z"/>
<path fill="#6F7169" opacity="1.000000" stroke="none" 
	d="
M801.000000,303.999390 
	C801.486389,303.976532 801.989746,304.026794 802.455933,303.918030 
	C803.702881,303.627167 804.933899,303.268097 806.171265,302.936096 
	C806.180115,303.658539 806.188965,304.380951 806.197815,305.103363 
	C804.510742,304.977478 802.823608,304.851593 801.068237,304.363464 
	C801.000000,304.001221 801.000000,304.000000 801.000000,303.999390 
z"/>
<path fill="#6F725F" opacity="1.000000" stroke="none" 
	d="
M520.175232,302.224243 
	C520.871155,301.808746 521.749573,301.648468 522.817688,301.727478 
	C522.124146,302.137634 521.240967,302.308533 520.175232,302.224243 
z"/>
<path fill="#6F725F" opacity="1.000000" stroke="none" 
	d="
M514.416626,304.966888 
	C514.529114,304.118134 514.975098,303.199799 515.715454,302.146973 
	C515.589966,302.974091 515.169983,303.935669 514.416626,304.966888 
z"/>
<path fill="#6E6F72" opacity="1.000000" stroke="none" 
	d="
M365.053864,301.095215 
	C365.777893,301.086823 366.501953,301.078400 367.669312,301.414490 
	C369.773468,303.602722 371.136261,303.678802 372.050629,301.095001 
	C374.064880,301.081116 376.079132,301.067230 378.522736,301.071777 
	C380.475647,303.513458 382.237701,305.898438 378.101624,307.705444 
	C377.550812,307.946075 377.047882,309.961365 377.342377,310.219421 
	C381.114349,313.524658 378.802582,317.696381 378.909424,321.391724 
	C379.188019,331.028198 379.027466,340.678223 378.993530,350.322662 
	C378.964661,358.534882 375.572113,361.206512 367.653931,358.730652 
	C366.378479,358.331879 365.148193,355.513397 365.113861,353.789185 
	C364.888916,342.486267 365.114838,331.174866 364.938751,319.870209 
	C364.872650,315.627472 364.126282,311.395355 363.305634,307.111755 
	C362.921204,307.065125 362.963837,307.049377 362.979706,306.692322 
	C363.681671,304.588593 364.367767,302.841919 365.053864,301.095215 
z"/>
<path fill="#6E706E" opacity="1.000000" stroke="none" 
	d="
M453.004272,344.955200 
	C453.004333,331.796539 453.111908,319.129242 452.936401,306.465912 
	C452.887756,302.955292 454.034271,301.852417 457.505798,301.914764 
	C469.475128,302.129822 467.955261,300.940460 467.997253,312.320190 
	C468.048950,326.319061 468.020447,340.318176 468.019257,354.317200 
	C468.019012,356.979889 468.462219,360.319916 464.374481,359.875549 
	C460.599854,359.465240 455.063019,362.597137 453.838959,355.823547 
	C453.224945,352.425751 453.262146,348.910309 453.004272,344.955200 
z"/>
<path fill="#6E6F71" opacity="1.000000" stroke="none" 
	d="
M627.997009,301.984497 
	C632.345093,301.677399 636.693237,301.370300 641.509644,301.471863 
	C641.318665,304.587036 640.659363,307.293518 639.997070,310.425415 
	C639.752014,312.130890 639.382507,313.401886 639.290771,314.692657 
	C638.958618,319.367310 638.206360,324.154022 641.967773,328.344696 
	C641.630554,329.803619 641.325562,330.915436 640.848267,332.403961 
	C640.117126,339.135162 639.502625,345.485748 639.056396,351.848145 
	C638.984680,352.872253 639.663391,353.948975 639.989319,355.358490 
	C639.320190,357.145386 638.656921,358.575134 637.993591,360.004883 
	C636.898438,359.710846 635.803284,359.416809 634.096375,358.792786 
	C630.995422,358.301971 628.506287,358.141083 626.017090,357.980225 
	C625.676453,340.636932 625.335876,323.293640 625.341431,305.443359 
	C626.457336,303.952393 627.227173,302.968445 627.997009,301.984497 
z"/>
<path fill="#6F7163" opacity="1.000000" stroke="none" 
	d="
M638.462891,360.011536 
	C638.656921,358.575134 639.320190,357.145386 640.343628,355.354004 
	C641.175781,354.965668 641.647766,354.938934 642.119812,354.912201 
	C642.293518,354.939850 642.467224,354.967529 642.898560,355.060181 
	C644.895935,355.417206 646.634583,355.955444 648.375549,355.962891 
	C664.340576,356.031158 680.306030,355.997559 696.271362,356.021606 
	C698.500061,356.024963 701.294556,355.336823 700.988403,359.610077 
	C680.296631,360.030640 659.614380,360.024384 638.462891,360.011536 
z"/>
<path fill="#6F7163" opacity="1.000000" stroke="none" 
	d="
M626.086487,358.362305 
	C628.506287,358.141083 630.995422,358.301971 633.755005,358.765503 
	C631.402283,358.960266 628.779053,358.852325 626.086487,358.362305 
z"/>
<path fill="#6F7163" opacity="1.000000" stroke="none" 
	d="
M627.619263,301.979828 
	C627.227173,302.968445 626.457336,303.952393 625.347778,304.975647 
	C624.999756,304.269287 624.991394,303.523590 624.978210,302.406342 
	C625.729431,302.014893 626.485535,301.995026 627.619263,301.979828 
z"/>
<path fill="#777B52" opacity="1.000000" stroke="none" 
	d="
M641.965454,354.588928 
	C641.647766,354.938934 641.175781,354.965668 640.349487,354.996887 
	C639.663391,353.948975 638.984680,352.872253 639.056396,351.848145 
	C639.502625,345.485748 640.117126,339.135162 641.260864,332.342712 
	C643.960571,331.604828 646.073608,331.058929 648.190125,331.045288 
	C660.821594,330.963684 673.454407,330.942291 686.085449,331.047607 
	C689.368713,331.074982 692.647522,331.626862 695.928406,331.937805 
	C695.928406,331.937805 695.963806,332.328766 695.976013,332.523193 
	C678.282166,332.717590 660.576172,332.717590 641.811096,332.717590 
	C641.811096,340.275940 641.811096,347.270782 641.965454,354.588928 
z"/>
<path fill="#707160" opacity="1.000000" stroke="none" 
	d="
M640.000000,310.000000 
	C640.659363,307.293518 641.318665,304.587036 641.965576,301.497375 
	C660.815308,301.330078 679.717529,300.098999 698.536011,301.881897 
	C698.733948,302.586273 698.931824,303.290619 699.129700,303.994965 
	C697.441345,304.657959 695.758850,305.878540 694.063721,305.896301 
	C679.592529,306.047943 665.119080,305.970062 650.646301,305.993256 
	C648.662170,305.996460 646.678223,306.177887 644.377258,306.524475 
	C643.366089,307.607635 642.671875,308.443207 641.613281,309.640015 
	C640.832581,310.000854 640.416321,310.000427 640.000000,310.000000 
z"/>
<path fill="#717556" opacity="1.000000" stroke="none" 
	d="
M639.997070,310.425415 
	C640.416321,310.000427 640.832581,310.000854 641.560181,310.004150 
	C642.053467,315.194580 642.235413,320.382080 642.739868,325.864105 
	C643.062317,326.158600 643.021423,326.574799 642.903564,327.003693 
	C642.584961,327.705963 642.323059,327.894287 642.000000,327.997620 
	C638.206360,324.154022 638.958618,319.367310 639.290771,314.692657 
	C639.382507,313.401886 639.752014,312.130890 639.997070,310.425415 
z"/>
<path fill="#71735B" opacity="1.000000" stroke="none" 
	d="
M364.580750,301.062988 
	C364.367767,302.841919 363.681671,304.588593 362.971191,306.705078 
	C362.475769,307.019806 362.004761,306.964783 360.882202,306.597137 
	C351.767059,306.187500 343.303101,305.999695 334.840027,306.033783 
	C330.915253,306.049591 326.992218,306.497253 323.068390,306.749115 
	C322.623413,306.775909 322.178436,306.802734 321.402771,306.782959 
	C319.578766,301.566162 319.938629,301.028412 325.351746,301.017365 
	C338.270294,300.991028 351.188965,301.022552 364.580750,301.062988 
z"/>
<path fill="#71735B" opacity="1.000000" stroke="none" 
	d="
M371.641113,301.063324 
	C371.136261,303.678802 369.773468,303.602722 368.031189,301.426941 
	C369.043732,301.073822 370.137665,301.052734 371.641113,301.063324 
z"/>
<path fill="#7B813E" opacity="1.000000" stroke="none" 
	d="
M323.525757,306.816956 
	C326.992218,306.497253 330.915253,306.049591 334.840027,306.033783 
	C343.303101,305.999695 351.767059,306.187500 360.532043,306.532623 
	C348.550018,306.815430 336.266571,306.850098 323.525757,306.816956 
z"/>
<path fill="#6E7064" opacity="1.000000" stroke="none" 
	d="
M641.967773,328.344696 
	C642.323059,327.894287 642.584961,327.705963 642.894531,327.212616 
	C657.269653,327.002289 671.536255,326.977356 685.802185,327.059204 
	C687.919861,327.071350 690.034546,327.587097 692.902405,327.932434 
	C694.105347,327.992310 694.556519,327.989563 695.007690,327.986816 
	C695.330872,329.064606 695.653992,330.142426 695.952759,331.579041 
	C692.647522,331.626862 689.368713,331.074982 686.085449,331.047607 
	C673.454407,330.942291 660.821594,330.963684 648.190125,331.045288 
	C646.073608,331.058929 643.960571,331.604828 641.433228,331.966064 
	C641.325562,330.915436 641.630554,329.803619 641.967773,328.344696 
z"/>
<path fill="#717556" opacity="1.000000" stroke="none" 
	d="
M694.858154,327.765594 
	C694.556519,327.989563 694.105347,327.992310 693.315552,327.985016 
	C693.554199,327.831421 694.131409,327.687897 694.858154,327.765594 
z"/>
</svg>